<?xml version="1.0" standalone="no"?>
<!DOCTYPE svg PUBLIC "-//W3C//DTD SVG 20010904//EN"
 "http://www.w3.org/TR/2001/REC-SVG-20010904/DTD/svg10.dtd">
<svg version="1.0" xmlns="http://www.w3.org/2000/svg"
 width="512.000000pt" height="512.000000pt" viewBox="0 0 512.000000 512.000000"
 preserveAspectRatio="xMidYMid meet">

<g transform="translate(0.000000,512.000000) scale(0.100000,-0.100000)"
fill="#000000" stroke="none">
<path d="M415 4786 c-41 -18 -83 -69 -90 -109 -3 -18 -4 -982 -3 -2144 l3
-2112 21 -27 c11 -15 33 -37 48 -48 l27 -21 2139 0 2139 0 27 21 c15 11 37 33
48 48 l21 27 0 2139 0 2139 -21 27 c-11 15 -33 37 -48 48 l-27 21 -2127 2
c-1753 2 -2132 0 -2157 -11z m2208 -800 c47 -20 904 -883 913 -919 10 -44 -1
-112 -24 -145 -41 -56 -139 -80 -200 -48 -15 8 -153 141 -307 295 l-280 281
-5 -1114 c-5 -1106 -5 -1115 -26 -1142 -39 -53 -71 -69 -134 -69 -63 0 -95 16
-134 69 -21 27 -21 36 -26 1142 l-5 1114 -280 -281 c-154 -154 -292 -287 -307
-295 -15 -8 -49 -14 -75 -14 -90 0 -153 63 -153 153 0 26 6 60 14 75 21 39
876 889 906 901 36 14 86 13 123 -3z"/>
</g>
</svg>
